<svg data-name="Capa 1" xmlns="http://www.w3.org/2000/svg" viewBox="0 0 320.46 139.28" width="320" height="139"><defs><style>.cls-1{fill:#fff;}</style></defs><path class="cls-1" d="M59.24,26.35c.16,4.48,3.54,7.35,9.26,7.35H69c4.43,0,7-2.3,7-5.15,0-2.61-1.45-4.14-5.08-4.89l-6.58-1.34c-6.52-1.37-9.82-5.1-9.82-11S60.15-.11,68.8,0c8.86-.08,14.39,5.1,14.42,12.41H76.61c-.26-4.11-3.41-6.53-7.7-6.53h-.54c-4.35,0-7.2,2.34-7.2,5.24,0,2.69,1.59,4.14,4.94,4.81l5.94,1.18c6.85,1.37,10.61,4.94,10.61,11,.08,6.68-5.67,11.52-14.59,11.44-9.82,0-15.14-5-15.41-13.24Z"/><path class="cls-1" d="M88.26.54h28.68V6.45H94.87v9.88h18.77v5.91H94.87V33.17h22.61v5.88H88.26Z"/><path class="cls-1" d="M137.38,0c9.13-.08,15.41,5.51,15.84,13h-6.61a8,8,0,0,0-2.92-5.18,9.37,9.37,0,0,0-6-1.91h-.56c-6.93-.1-11.52,5.72-11.44,13.91-.08,8.19,4.51,14,11.44,13.91h.56a9.5,9.5,0,0,0,6-1.85,7.91,7.91,0,0,0,2.9-5.21h6.61c-.46,7.6-6.69,13-15.84,13-11.34.1-18.4-8.22-18.29-19.8C119,8.27,126-.13,137.38,0Z"/><path class="cls-1" d="M158.13.54h17.29c6.72-.08,12,4.54,11.93,10.47,0,4.86-2.34,8.3-6.45,9.72,4.19,0,5.91,1.75,5.91,5.43V39.05H180.2V27.82c0-2.9-.77-3.7-3.67-3.7H164.74V39.05h-6.61Zm15.68,17.75c4.43,0,7-2.36,7-6.12s-2.42-5.72-7-5.72h-9.07V18.29Z"/><path class="cls-1" d="M193.49.54h28.68V6.45H200.09v9.88h18.77v5.91H200.09V33.17H222.7v5.88H193.49Z"/><path class="cls-1" d="M237.83,6.45H224.32V.54h33.62V6.45H244.41v32.6h-6.58Z"/><path class="cls-1" d="M97.19,50.39V88.9h-6.5V57L80.35,88.9H72.69L62.09,57.07V88.9h-6.5V50.39h10.5L76.56,81.94,86.74,50.39Z"/><path class="cls-1" d="M104.28,50.39H133v5.9H110.89v9.89h18.77v5.91H110.89V83H133.5V88.9H104.28Z"/><path class="cls-1" d="M138,50.39h13.43c11.2-.08,18.9,7.06,18.82,19.25.11,12.19-7.49,19.34-18.66,19.26H138ZM150.92,83c4.06,0,7.17-1.08,9.4-3.25s3.36-5.54,3.36-10.13-1.13-8-3.36-10.1-5.34-3.25-9.4-3.25h-6.28V83Z"/><path class="cls-1" d="M175.35,50.39H182V88.9h-6.61Z"/><path class="cls-1" d="M212.28,79.47h-17.1l-3.63,9.43h-6.87l15.25-38.51h8l15,38.51h-6.93ZM210,73.56l-6.28-16.27-6.26,16.27Z"/><path class="cls-1" d="M87.28,100.23v38.52H78.49l-16.3-29.81v29.81h-6.6V100.23h8.8L80.7,130V100.23Z"/><path class="cls-1" d="M94.38,100.23h28.68v5.91H101V116h18.77v5.9H101v10.93h22.61v5.89H94.38Z"/><path class="cls-1" d="M138.72,106.14H125.21v-5.91h33.63v5.91H145.3v32.61h-6.58Z"/><path class="cls-1" d="M209.83,100.23l-9.45,38.52h-8.67l-6.64-29.87-6.74,29.87h-8.67l-9.4-38.52h6.82l7.14,31.4,6.82-31.4h8.28l6.76,31.43,6.9-31.43Z"/><path class="cls-1" d="M229,99.7c10.72-.14,18.56,7.65,18.45,19.79.11,12.14-7.73,19.93-18.45,19.79-10.74.14-18.61-7.65-18.47-19.79C210.39,107.35,218.26,99.56,229,99.7Zm.27,33.7c7,0,11.6-5.26,11.6-13.91s-4.59-13.91-11.6-13.91h-.54c-7,0-11.6,5.26-11.6,13.91s4.59,13.91,11.6,13.91Z"/><path class="cls-1" d="M252.42,100.23h17.3c6.71-.08,12,4.54,11.92,10.48,0,4.86-2.34,8.3-6.44,9.72,4.18,0,5.9,1.75,5.9,5.43v12.89h-6.6V127.52c0-2.9-.78-3.71-3.68-3.71H259v14.94h-6.61ZM268.11,118c4.43,0,6.95-2.37,6.95-6.13s-2.42-5.72-6.95-5.72H259V118Z"/><path class="cls-1" d="M300.13,121l-5.75,6v11.77h-6.6V100.23h6.6v18l17.46-18h8.33l-15.29,15.88,15.58,22.64h-8.19Z"/><path class="cls-1" d="M6.62,35.89l7.63-13.2H0V16.36H14.25L6.62,3.16,12.2,0l7.63,13.2L27.45,0,32.9,3.16l-7.62,13.2H39.53v6.33H25.28l7.62,13.2-5.57,3.16L19.7,25.85l-7.62,13.2Z"/></svg>
